# xmcd CD database file
#
# Track frame offsets:
#	150
#	15001
#	39908
#	57320
#	79328
#	95931
#	111100
#	130227
#	144262
#	160379
#	194000
#	207427
#	225653
#	238615
#
# Disc length: 3464 seconds
#
# Revision: 0
# Processed by: cddbd v1.5.2PL0 Copyright (c) Steve Scherf et al.
# Submitted via: NeoAudio 9.9.9
#
DISCID=bc0d860e
DTITLE=Misc - Behind the Waterfall
DYEAR=1900
DGENRE=New Age
TTITLE0=Behind theWaterfall
TTITLE1=The Waiting
TTITLE2=Tomorrow´s Child
TTITLE3=Seguaro
TTITLE4=Shadow Dancer
TTITLE5=Night Wind
TTITLE6=Oaks
TTITLE7=After the Rain
TTITLE8=Sunshower
TTITLE9=Indian Summer
TTITLE10=Valley in the Clouds
TTITLE11=Reflections
TTITLE12=Eagles Pad
TTITLE13=Empire Builder
EXTD=
EXTT0=
EXTT1=
EXTT2=
EXTT3=
EXTT4=
EXTT5=
EXTT6=
EXTT7=
EXTT8=
EXTT9=
EXTT10=
EXTT11=
EXTT12=
EXTT13=
PLAYORDER=
